<?xml version="1.0" encoding="utf-8"?>
<!-- Generator: Adobe Illustrator 23.0.3, SVG Export Plug-In . SVG Version: 6.00 Build 0)  -->
<svg version="1.1" xmlns="http://www.w3.org/2000/svg" xmlns:xlink="http://www.w3.org/1999/xlink" x="0px" y="0px"
	 viewBox="0 0 600 600" style="enable-background:new 0 0 600 600;" xml:space="preserve">
<style type="text/css">
	.st0{fill:#202124;}
	.st1{fill:#FFFFFF;stroke:#202124;stroke-width:0.75;stroke-miterlimit:10;}
	.st2{fill:#202124;stroke:#202124;stroke-width:0.75;stroke-miterlimit:10;}
	.st3{fill:#5492ED;}
	.st4{fill:#EB506E;}
	.st5{fill:#B1CEFC;}
	.st6{fill:none;}
	.st7{fill:#FFFFFF;}
	.st8{fill:#CECECE;}
	.st9{fill:#F7CD5B;}
	.st10{fill:#040844;}
	.st11{fill:#DBDBDB;}
	.st12{fill:none;stroke:#202124;stroke-miterlimit:10;}
	.st13{fill:#EAEAEA;}
	.st14{fill:#202124;stroke:#202124;stroke-miterlimit:10;}
</style>
<g id="phone">
	<path class="st0" d="M403.3,579.6H178.3c-13.7,0-24.9-11.1-24.9-24.9V76.1c0-13.7,11.1-24.9,24.9-24.9h225.1
		c13.7,0,24.9,11.1,24.9,24.9v478.7C428.2,568.5,417.1,579.6,403.3,579.6z"/>
	<path class="st1" d="M395.6,554.1H184.9c-13.7,0-24.9-11.1-24.9-24.9V83.9c0-13.7,11.1-24.9,24.9-24.9h210.7
		c13.7,0,24.9,11.1,24.9,24.9v445.3C420.5,543,409.4,554.1,395.6,554.1z"/>
	<path class="st0" d="M319.5,72.5h-50.1c-2.4,0-4.4-2-4.4-4.4V57.6c0-2.4,2-4.4,4.4-4.4h50.1c2.4,0,4.4,2,4.4,4.4v10.5
		C323.9,70.5,322,72.5,319.5,72.5z"/>
</g>
<g id="plant">
	<path class="st2" d="M120.1,576.4c-9,0-18,0-27,0c-2.8-20.4-5.7-40.8-8.5-61.2h42.3C124.6,535.6,122.4,556,120.1,576.4z"/>
	<ellipse class="st1" cx="105.7" cy="515.2" rx="21.1" ry="5.3"/>
	<g>
		<g>
			<path class="st3" d="M99.2,457.7c-1.1,4.5-1.4,9.1-0.6,13.7c0.9,5,3.5,9,5.6,13.5c4.6,10.4-1.6,21.8,1.3,32.6
				c0.5,1.9,3.4,1.1,2.9-0.8c-2.5-9.5,2.2-19,0.1-28.5c-0.9-4.2-3.4-7.7-5.1-11.6c-2.5-5.8-2.8-12-1.3-18.1
				C102.6,456.6,99.7,455.8,99.2,457.7L99.2,457.7z"/>
		</g>
	</g>
	<g>
		<g>
			<path class="st3" d="M81.1,456.4c-1.5,8.1,2.3,17.1,6,24.2c4,7.6,9.9,14.1,17.9,17.6c1.8,0.8,3.3-1.8,1.5-2.6
				c-7-3.1-12.3-8.4-16-15c-3.7-6.4-7.9-15.9-6.5-23.4C84.3,455.3,81.4,454.5,81.1,456.4L81.1,456.4z"/>
		</g>
	</g>
	<g>
		<g>
			<path class="st3" d="M112.8,450.8c1.6,10.3-3.6,19.6-10.7,26.6c-1.4,1.4,0.7,3.5,2.1,2.1c8-7.8,13.3-18.1,11.5-29.5
				C115.4,448.1,112.5,448.9,112.8,450.8L112.8,450.8z"/>
		</g>
	</g>
	<path class="st3" d="M86.3,475.5c-2.4-1-5.4-2.6-8-5.4c-8.8-9.6-5.3-23.7-4.9-25.2c1.8,2.7,3.7,5.7,5.5,9.1
		C83,461.9,85.1,469.4,86.3,475.5z"/>
	<path class="st3" d="M95.4,489.7c-1.6-2.6-3.3-6.1-4.5-10.3c-2.3-7.9-1.9-14.8-1.3-19c1.8,1.7,5.3,5.4,7,11.2
		C99.2,480.3,96.3,487.7,95.4,489.7z"/>
	<path class="st3" d="M99.6,466.1c-1.5-2.3-3.1-5.3-4.1-9.1c-2.9-10.6,0.6-19.7,2.1-23.2c1.4,2.3,2.9,5.2,3.9,8.8
		C104.4,453.3,101.2,462.5,99.6,466.1z"/>
	<path class="st3" d="M112,466.1c-0.7-2.2-1.3-4.9-1.4-8c-0.4-10.2,4.5-17.8,6.8-20.8c1,2.2,2.1,5.3,2.3,9.1
		C120.3,456.9,113.7,464.3,112,466.1z"/>
	<path class="st3" d="M106.5,504.2c-0.2-1.2-1.4-8.2,3.4-14.6c4.6-6.2,11.2-7.4,12.5-7.5c-0.5,2.6-1.4,6-3.4,9.6
		C115,498.7,109.4,502.5,106.5,504.2z"/>
</g>
<g id="character">
	<g id="leg_left">
		<path class="st4" d="M315.6,507.9c5,29,7.8,35.8,9.5,35.7c1.7-0.1,3.4-7.1,3.9-34.7C324.6,508.6,320.1,508.2,315.6,507.9z"/>
		<path class="st5" d="M336.1,311.1c0.1,4.2,0.1,11,0,19.5c-0.3,19.2-1.3,33-4.5,74.7c-0.5,6.1-2,26.1-2.4,31.8
			c0.6,10.5,0.8,21.8,0.7,33.6c-0.2,13.8-1,26.8-2.2,38.8c-0.3,0.4-2,2.6-4.9,3c-4.1,0.6-6.8-2.6-6.9-2.8
			c-1.7-8.3-3.3-16.7-4.9-25.1c-2.9-14.9-5.6-29.7-8.1-44.2c-3.6-14.3-7.2-28.6-10.8-42.9c-4.1-16.2-8.1-32.4-12.1-48.7
			c-3.8-14,0.7-28.8,11.5-37.5C303.8,301.1,322.4,300.8,336.1,311.1z"/>
		<g>
			<path class="st6" d="M336.7,316.2c-1.4,39.8-3.9,79.6-7.6,119.3"/>
		</g>
		<g>
			<path class="st6" d="M329.2,437.1c1.1,23.3,0.9,46.6-0.9,69.8"/>
		</g>
		<g>
			<path class="st6" d="M281,352.9c7,28.4,13.9,56.8,20.9,85.2"/>
		</g>
		<g>
			<path class="st6" d="M302.7,444.9c4.3,21,8.6,42,13,63"/>
		</g>
		<g>
			<g>
				<path class="st0" d="M317.4,512c3.5,2.1,8.1,1.1,10.5-2.2c0.3-0.4-0.4-0.8-0.6-0.4c-2.2,3-6.3,3.8-9.5,1.9
					C317.4,511.1,317,511.7,317.4,512L317.4,512z"/>
			</g>
		</g>
	</g>
	<g id="leg_right">
		<path class="st4" d="M272,558.8c-1.3,26.5,0.6,30.9,2.1,31.2c1.5,0.3,4.9-3.4,12.9-31.4c-0.8-2.9-2.9-5.3-5.5-5.9
			C277.8,551.8,273.4,554.3,272,558.8z"/>
		<path class="st5" d="M251.7,314.5c-0.4,6.1-0.9,15-1.3,25.7c-0.9,22.9-1.8,43.9-0.5,70.2c0.3,6.7,0.9,15.9,1.9,26.9
			c1,10.8,2.2,21.8,3.7,33.1c4.1,31.1,9.6,60.1,16,87c0.5,0.5,2.7,2.8,6.1,2.9c3.4,0.1,6.6-1.8,8.4-5c0.6-10.8,1.2-21.7,1.8-32.6
			c1.5-29.6,2.6-58.8,3.4-87.6c2-13.9,4.1-28,6.5-42.2c4.4-26.6,9.2-52.4,14.3-77.4C291.8,315.1,271.8,314.8,251.7,314.5z"/>
		<g>
			<path class="st6" d="M251.5,314.7c-2,37.8-2.4,75.6-1.2,113.4"/>
		</g>
		<g>
			<path class="st6" d="M251.7,437.2c3.8,40.4,10.4,80.6,19.7,120.1"/>
		</g>
		<g>
			<g>
				<path class="st7" d="M304.6,345.9c-4.8,28.6-9.2,57.3-13.2,86.1c-0.1,0.5,0.7,0.7,0.7,0.2c4-28.8,8.4-57.5,13.2-86.1
					C305.4,345.6,304.7,345.4,304.6,345.9L304.6,345.9z"/>
			</g>
		</g>
		<g>
			<path class="st6" d="M290.7,441.2c-1.6,38-3.2,76.1-4.8,114.1"/>
		</g>
		<g>
			<g>
				<path class="st0" d="M271.8,559.1c4.3,2.1,9.2,1.9,13.3-0.6c0.4-0.2,0-0.9-0.4-0.6c-3.9,2.4-8.5,2.6-12.6,0.6
					C271.8,558.3,271.4,558.9,271.8,559.1L271.8,559.1z"/>
			</g>
		</g>
	</g>
	<g id="hand_left">
		<path class="st8" d="M352,368.5c2.3-1.2,4.5-2.4,6.8-3.6c8.6,4.4,17.2,8.7,25.8,13.1c1.1,8.4,2.1,16.7,3.3,25.2
			c2.9,21.8,6,43.3,9.2,64.5c-3.3,1.1-6.6,2.1-10,3.2c-11.2-10.9-22.3-21.8-33.5-32.7C353.1,415,352.6,391.8,352,368.5z"/>
		<path class="st9" d="M361.8,325.5c-0.5,0.9-1.4,2.4-1.4,4.5c0,0.7,0.1,1,0.7,4.6c0.6,3.3,0.6,3.5,0.5,3.8
			c-0.3,2.2-1.8,2.7-1.8,4.5c0,1.4,0.9,2.4,1.3,3c2.3,2.8,6.3,2.6,7.4,2.6c1.5,0,4.5-0.1,6.4-2.3c1.2-1.3,1.4-2.7,1.8-5.4
			c0.5-3.6,0.1-6.5-0.3-9c-0.5-3.4-0.9-5.4-2.2-7.7c-1.1-1.9-2.4-4.1-4.5-4.5C366.3,318.9,363,323.4,361.8,325.5z"/>
		<path class="st10" d="M349,168.4c1.5,1.5,3.5,3.9,5.4,7.1c3.3,5.4,4.1,9.9,6,17.9c2.9,12.6,2.5,8.9,4.5,17.8
			c2.5,11.8,4.2,22.8,5.5,33.5c0.9,8,1.6,15.7,3.8,58.9c0.4,8.4,0.8,15.3,1,19.9c-1,0.8-2.4,1.7-4.3,2.3c-5.3,1.7-10-0.6-11.2-1.3
			c-2-6.8-4.7-15.8-8-26.4c-3.3-10.7-8.2-26.3-15-46.1c-4.4-12.6-10-28.1-16.9-45.9c0-3.4,0.5-13.5,7.7-23.2
			C335.2,172.4,345.8,169.2,349,168.4z"/>
		<g>
			<path class="st6" d="M351,169.4c2.6,3.5,4.1,7.7,5.6,11.8c15.2,44.7,17.1,92.7,18,139.9"/>
		</g>
		<g>
			<path class="st6" d="M325.8,221.2c12.4,34.1,23.7,68.5,33.9,103.3"/>
		</g>
		<g>
			<path class="st6" d="M361.9,325.9c4.4,1.5,9.6,0.5,13.2-2.4"/>
		</g>
		<g>
			<g>
				<path class="st0" d="M364.4,329.1c-1.1,1.4-1.2,2.5-0.7,4.2c0.7,2.4,0.7,3.5-0.1,5.8c-0.4,1.1-0.9,2.3-0.7,3.5
					c0.4,4.1,4.1,3.3,6,0.8c0.3-0.4-0.2-0.9-0.5-0.5c-1.1,2-2.7,1.3-4.5-2.2c0.1-0.3,0.2-0.6,0.3-1c0.1-1,0.8-1.9,0.9-2.9
					c0.3-2-1.5-5.6-0.1-7.2C365.3,329.3,364.7,328.7,364.4,329.1L364.4,329.1z"/>
			</g>
		</g>
		<g>
			<path class="st6" d="M374.6,325.9c2.5,5.5,3.1,11.8,1.7,17.6"/>
		</g>
		<g>
			<g>
				<path class="st0" d="M356.4,345.6c1.2-2.1,3.2-3.6,5.6-4.3c0.5-0.1,0.3-0.9-0.2-0.7c-2.6,0.7-4.7,2.3-6,4.6
					C355.5,345.6,356.2,346,356.4,345.6L356.4,345.6z"/>
			</g>
		</g>
		<g>
			<g>
				<path class="st0" d="M369.7,344.1c5.2,3,6,11.4,6.7,16.8c0.7,5.4,0.9,10.8,1.1,16.2c0,0.5,0.8,0.5,0.8,0
					c-0.2-6.9-0.4-13.9-1.8-20.8c-0.9-4.7-1.9-10.3-6.3-12.9C369.7,343.2,369.3,343.9,369.7,344.1L369.7,344.1z"/>
			</g>
		</g>
		<g>
			<g>
				<path class="st0" d="M359.3,340.2c-1.8,2.8,0.2,6.3,3.5,6.4c0.5,0,0.5-0.7,0-0.8c-2.8-0.1-4.3-3-2.8-5.3
					C360.2,340.1,359.6,339.8,359.3,340.2L359.3,340.2z"/>
			</g>
		</g>
		<g>
			<g>
				<path class="st0" d="M362,340.3c-1.1,3.1,0.1,6.6,2.8,8.4c0.4,0.3,0.8-0.4,0.4-0.6c-2.5-1.6-3.5-4.7-2.5-7.5
					C362.9,340,362.2,339.8,362,340.3L362,340.3z"/>
			</g>
		</g>
		<g>
			<g>
				<path class="st0" d="M367.4,344.2c-1.1,1.8-0.2,4.3,1.8,5c0.5,0.2,0.6-0.6,0.2-0.7c-1.5-0.6-2.2-2.5-1.3-3.9
					C368.3,344.2,367.6,343.8,367.4,344.2L367.4,344.2z"/>
			</g>
		</g>
		<g>
			<g>
				<path class="st0" d="M369.6,345.4c0.5,1.5,1.5,2.8,2.9,3.7c0.4,0.3,0.8-0.4,0.4-0.6c-1.2-0.8-2.1-1.9-2.5-3.2
					C370.1,344.8,369.4,345,369.6,345.4L369.6,345.4z"/>
			</g>
		</g>
		<g>
			<g>
				<path class="st0" d="M360.5,326.4c-0.7,2.7-0.6,5.2,0.1,7.9c0.4,1.7,0.8,3,0.2,4.7c-0.5,1.3-1,2.4-1.3,3.8
					c-0.1,0.5,0.6,0.7,0.7,0.2c0.4-1.6,1.1-2.9,1.8-4.4c0.2-0.5,0.5-0.7,0.5-1.3c0.1-1.1-1-2.7-1.3-3.7c-0.6-2.3-0.5-4.7,0.1-7
					C361.4,326.1,360.6,325.9,360.5,326.4L360.5,326.4z"/>
			</g>
		</g>
		<g>
			<g>
				<path class="st0" d="M371.1,345.6c7.3,9.5,11.8,20.6,13.2,32.5c0.1,0.5,0.8,0.5,0.8,0c-1.4-12.1-5.9-23.2-13.3-32.9
					C371.4,344.8,370.8,345.2,371.1,345.6L371.1,345.6z"/>
			</g>
		</g>
		<g>
			<g>
				<path class="st0" d="M358,343.4c-2.5,7.7-3.3,15.5-2.3,23.6c0.1,0.5,0.8,0.5,0.8,0c-0.9-8-0.2-15.7,2.3-23.4
					C358.9,343.1,358.2,342.9,358,343.4L358,343.4z"/>
			</g>
		</g>
	</g>
	<g id="hand_right">
		<path class="st8" d="M195,428.8c0.2,5.6,0.2,11.3,0,17.3c-0.6,21.1-3.4,40.2-7.2,56.9c7,2,14,3.9,21.1,5.9
			c10.4-16.3,20.8-32.6,31.2-48.9c-2.4-19.4-4.8-38.7-7.2-58.1c-0.6-0.6-2-1.8-4.2-2.1c-4.1-0.6-7,2.6-7.2,2.9
			C212.7,411.3,203.9,420.1,195,428.8z"/>
		<path class="st9" d="M217,350.1c0,1.1,0,2.8-0.2,4.8c-0.3,2.8-0.7,4.1-2.1,9.9c-2.1,8.8-0.6,3.8-2,9.3c-0.8,3.5-1.3,5-0.4,6.1
			c1.3,1.6,4.3,1.2,4.9,1.1c1.7-0.2,3.1-1.2,6-3.2c2.1-1.4,3.2-2.2,4-3.2c0.5-0.6,1.7-2.2,2.3-4.5c0.6-2.8-0.5-3.4-0.3-7.7
			c0.1-2.6,0.5-2.4,0.5-4.5c0-2.3-0.5-4-1.4-6.9c-0.4-1.2-0.9-3-1.7-5C223.5,347.7,220.2,348.9,217,350.1z"/>
		<path class="st10" d="M228.9,168.1c-2,0.7-3.2,2.4-5.7,5.8c-4.7,6.4-6.8,12.4-7.1,13.6c-6.4,19.6-7.5,35.1-7.5,35.1
			c-2.1,29.3-1,48.9-1,48.9c1.1,19.8,3.6,47,9.7,79.9c0.9,0.1,2.5,0.2,4.3-0.3c3-0.9,4.7-3,5.3-3.8c0.1-3.8,0.2-9.1,0.5-15.3
			c0.4-9.1,1.1-23.6,3.6-41.5c1.2-9.1,2.7-19.6,6.1-33.2c4.6-18.4,7.7-19.2,11.6-35.6c4.1-17.1,6.6-28.2,1-38.8
			C244.9,174,235.1,166,228.9,168.1z"/>
		<g>
			<path class="st6" d="M226.9,168.9c-14.5,17.3-17.9,41.2-19.1,63.8c-2,39.1,1,78.5,9,116.9"/>
		</g>
		<g>
			<path class="st6" d="M241.3,241.7c-11.1,33.2-12.9,68.6-14.7,103.5"/>
		</g>
		<g>
			<path class="st6" d="M217.2,351.3c4.3,0.7,8.9-1.8,10.6-5.8"/>
		</g>
		<g>
			<g>
				<path class="st0" d="M224.4,354.1c0.9,2.2,1.6,4.4,2.1,6.7c0.3,1.4,0.6,2.9,0.7,4.3c0.2,1.4,0.8,7.8-3.2,5.7
					c-0.4-0.2-0.8,0.4-0.4,0.6c2.3,1.2,4.2-0.6,4.5-3c0.6-4.7-1.4-10.4-3-14.7C225,353.5,224.2,353.7,224.4,354.1L224.4,354.1z"/>
			</g>
		</g>
		<g>
			<path class="st6" d="M217.4,352.2c-1.7,7.9-3.3,15.7-5,23.6c-0.2,1.2-0.5,2.3-0.3,3.5s0.9,2.3,2,2.7"/>
		</g>
		<g>
			<g>
				<path class="st0" d="M227.4,349.9c2,4,2.5,8.4,1.6,12.7c-0.1,0.5,0.6,0.7,0.7,0.2c1-4.6,0.4-9.1-1.7-13.3
					C227.8,349.1,227.2,349.5,227.4,349.9L227.4,349.9z"/>
			</g>
		</g>
		<g>
			<g>
				<path class="st0" d="M219.7,376.5c-7,4.5-9.6,12.6-12.4,20c-4.1,10.6-7.6,21.3-10.6,32.3c-0.1,0.5,0.6,0.7,0.7,0.2
					c2.5-9.1,5.4-18.1,8.7-27c3.1-8.6,5.9-19.6,14.1-24.8C220.5,376.9,220.1,376.3,219.7,376.5L219.7,376.5z"/>
			</g>
		</g>
		<g>
			<g>
				<path class="st0" d="M216.7,379.8c-6.3,13.5-9,28.2-7.8,43.1c0,0.5,0.8,0.5,0.8,0c-1.2-14.8,1.4-29.3,7.7-42.7
					C217.6,379.8,216.9,379.4,216.7,379.8L216.7,379.8z"/>
			</g>
		</g>
		<g>
			<g>
				<path class="st0" d="M217.4,380.6c1.7-3.3,4.3-6,7.6-7.8c0.4-0.2,0-0.9-0.4-0.6c-3.4,1.8-6.1,4.6-7.9,8
					C216.5,380.7,217.2,381,217.4,380.6L217.4,380.6z"/>
			</g>
		</g>
		<g>
			<g>
				<path class="st0" d="M223.7,372.6c-1,3.1-3,5.7-5.6,7.6c-0.4,0.3,0,0.9,0.4,0.6c2.8-2,4.8-4.8,5.9-8.1
					C224.6,372.4,223.9,372.2,223.7,372.6L223.7,372.6z"/>
			</g>
		</g>
		<g>
			<g>
				<path class="st0" d="M220.9,380.6c2.7-1.5,4.6-4,5.4-6.9c0.1-0.5-0.6-0.7-0.7-0.2c-0.8,2.8-2.5,5.1-5,6.5
					C220.1,380.2,220.5,380.8,220.9,380.6L220.9,380.6z"/>
			</g>
		</g>
		<g>
			<g>
				<path class="st0" d="M225.4,377.4c2.3-1.4,3.5-4.1,3.1-6.8c-0.1-0.5-0.8-0.3-0.7,0.2c0.4,2.4-0.7,4.7-2.8,6
					C224.7,377,225,377.7,225.4,377.4L225.4,377.4z"/>
			</g>
		</g>
		<g>
			<g>
				<path class="st0" d="M228.8,368.6c0.7,1.5,0.6,3.1-0.3,4.4c-0.3,0.4,0.4,0.8,0.6,0.4c1.1-1.5,1.2-3.5,0.3-5.2
					C229.3,367.8,228.6,368.2,228.8,368.6L228.8,368.6z"/>
			</g>
		</g>
		<g>
			<g>
				<path class="st0" d="M220.2,366.8c0.5,1.6,1.4,3,2.7,4c0.4,0.3,0.9-0.2,0.5-0.5c-1.2-1-2.1-2.2-2.5-3.7
					C220.8,366.1,220,366.3,220.2,366.8L220.2,366.8z"/>
			</g>
		</g>
		<g>
			<g>
				<path class="st0" d="M225.1,378.2c2.5,7,3.8,14.1,4,21.5c0,0.5,0.8,0.5,0.8,0c-0.2-7.5-1.5-14.7-4-21.7
					C225.6,377.5,224.9,377.7,225.1,378.2L225.1,378.2z"/>
			</g>
		</g>
		<g>
			<g>
				<path class="st0" d="M222.8,381c-0.2,7.2-0.8,14.5-1.7,21.7c-0.1,0.5,0.7,0.5,0.8,0c0.9-7.2,1.4-14.4,1.7-21.7
					C223.6,380.5,222.8,380.5,222.8,381L222.8,381z"/>
			</g>
		</g>
		<g>
			<g>
				<path class="st0" d="M196.9,430.1c0.7,0.9,0,2.3,0.9,3c0.7,0.6,1.6,0.3,2.4,0c3.4-1.2,6.5-3.8,9-6.4c0.3-0.3-0.2-0.9-0.5-0.5
					c-1.9,2-4,3.7-6.3,5c-1.5,0.8-3.2,2.1-4.3,0.1c-0.3-0.5-0.1-1.1-0.5-1.6C197.3,429.4,196.6,429.7,196.9,430.1L196.9,430.1z"/>
			</g>
		</g>
		<g>
			<g>
				<path class="st0" d="M222.7,402.5c1.4-1.9,3.7-2.8,6-2.4c0.5,0.1,0.7-0.6,0.2-0.7c-2.7-0.4-5.2,0.6-6.8,2.7
					C221.7,402.5,222.4,402.9,222.7,402.5L222.7,402.5z"/>
			</g>
		</g>
	</g>
	<g id="torso">
		<path class="st10" d="M228.9,168.1c-1,3.2-2.2,7.6-3.1,13c-1,6.1-1.6,13.7-0.7,24.6c0.8,9.8,2.4,17,5.4,29.6
			c5.9,24.3,11.4,44.5,15,57.7c2.4,8.8,4.4,16.3,5.9,21.7c2.4,1.6,5.8,3.7,10.3,5.6c15,6.5,28.5,5.6,36.1,5
			c17-1.3,30.1-7.3,37.8-11.7c1.9-10.7,3.7-21.5,5.4-32.4c5-31.2,9.2-61.8,12.8-91.6c-1.6-7.1-3.2-14.1-4.9-21.2
			c-6.9-2.8-16.5-6.1-28.1-8.5c-19.2-3.9-36-3.7-48.4-2.5C254.4,159.3,239.6,163.8,228.9,168.1z"/>
		<g>
			<path class="st6" d="M228.9,168.1c38.1-15.3,82.1-15.2,120.1,0.3"/>
		</g>
		<g>
			<g>
				<path class="st7" d="M224.9,197.9c-0.8,9.8,1.4,19.4,3.5,28.9c2.1,9.8,4.4,19.5,6.8,29.1c5,19.7,10.6,39.1,16.2,58.6
					c0.1,0.5,0.9,0.3,0.7-0.2c-5.4-18.9-10.8-37.7-15.7-56.8c-2.4-9.3-4.6-18.7-6.7-28.2c-2.2-10.3-4.9-20.9-4-31.5
					C225.7,197.5,224.9,197.5,224.9,197.9L224.9,197.9z"/>
			</g>
		</g>
		<g>
			<path class="st6" d="M254.6,317.2c24.7,12.3,55.7,11,79.3-3.4"/>
		</g>
		<g>
			<g>
				<path class="st7" d="M353.8,186.7c-5,42.4-11.2,84.7-18.5,126.8c-0.1,0.5,0.6,0.7,0.7,0.2c7.4-42.2,13.5-84.5,18.5-127
					C354.6,186.2,353.9,186.2,353.8,186.7L353.8,186.7z"/>
			</g>
		</g>
	</g>
	<g id="head">
		<path class="st9" d="M272.5,157.5c0.5,2,1.2,3.5,1.8,4.6c0.8,1.5,3.5,6.3,9.2,8.8c1.7,0.7,3.2,1.1,4.3,1.2
			c0.1,0.8,0.2,1.6,0.4,2.3c-0.2,0-2,0.4-2.7,2c-0.8,1.8,0.4,3.5,0.6,3.9c1.4,2,3.9,2.3,5.3,2.4c0.8,0.1,3.5,0.3,6.1-1.3
			c4.1-2.5,4.6-7.3,4.6-7.8c-0.1-1.7-0.3-3.4-0.4-5.1c0.7-0.4,1.6-1.1,2.6-2c0,0,1.7-1.6,3-4c2.7-4.9,3.2-13.3,3.2-13.7
			c-1.6-9.6-5.9-12-6.9-12.4C296.3,132.8,282.5,140.2,272.5,157.5z"/>
		<path class="st3" d="M311,148.6c0.2,1.4,0.6,3.5,1.8,5.7c2.8,5.3,7.8,7.5,9.7,8.3c6.8,2.9,13.2,1.5,15.5,1
			c16.2-3.8,23.5-21.1,24.6-23.8c2.9-7,3.2-13,3.3-15.2c0.2-10.7-3.8-18.3-4.7-19.9c-1.2-2.1-4.9-8.3-12.3-13.4
			c-7.5-5-14.5-6.1-17.7-6.5c-3.4-0.5-12.3-1.7-21.3,2.3c-8.2,3.6-12.1,5.9-12.1,5.9c-3.1,1.8-5,3-7.6,2.8c-2.7-0.3-3.5-2.3-7-2.9
			c-0.9-0.1-2.9-0.4-4.9,0.3c-5.5,2.2-6.2,10.8-6.2,11.9c0,0.7-0.2,4.3,1.4,8.4c0.7,1.7,1.5,3,2.2,3.9c-2.4,0.5-5.8,1.6-9.5,3.8
			c-7.7,4.6-11.1,11.1-11.8,12.6c-1.3,2.6-3.4,6.8-3.1,12.5c0.1,2.2,0.5,7.7,4.8,11.9c5.8,5.6,13.9,4.4,14.4,4.3
			c5-0.9,6-3.5,15.5-11.1c13.4-10.6,17.3-10,18.7-9.6C308,142.9,309.9,146.3,311,148.6z"/>
		<path class="st4" d="M290.9,117c1.6-0.5,5.4-1.3,9.9,0c6,1.8,9.1,6.3,9.9,7.6c-0.6-5-4.1-9-8.7-10.3
			C296,112.7,291.3,116.7,290.9,117z"/>
		<g>
			<path class="st6" d="M274.3,162.1c1.9,3.9,5.2,7.1,9.2,8.8c4,1.7,8.6,1.8,12.7,0.4c1.9-0.7,3.7-1.7,5.4-2.8
				c3.1-2.1,6.1-5,6.3-8.8"/>
		</g>
		<g>
			<path class="st6" d="M291,117.1c-11.4-3.4-24.2,1.4-32.2,10.2c-3.7,4.1-6.5,9.2-7.4,14.7c-0.9,5.5,0.4,11.4,4,15.6
				c3.6,4.2,9.6,6.4,15,4.9c3.4-1,6.3-3.3,9-5.5c4.1-3.4,8.2-6.7,12.3-10.1c3.2-2.6,6.8-5.4,10.9-5.3c3.9,0.1,7.6,3.1,8.4,7"/>
		</g>
		<g>
			<path class="st6" d="M294.5,118c6.2,1.8,11.1,6.8,13.7,12.6c2.7,5.8,3.3,12.4,3,18.8"/>
		</g>
		<g>
			<g>
				<path class="st0" d="M288.6,154.2c-1.1,4.5-1,8.9,0.3,13.3c0.1,0.5,0.9,0.3,0.7-0.2c-1.3-4.3-1.4-8.6-0.3-12.9
					C289.4,153.9,288.7,153.7,288.6,154.2L288.6,154.2z"/>
			</g>
		</g>
		<g>
			<g>
				<path class="st0" d="M287.4,172.2c0.2,1.5,0.5,2.9,0.7,4.4c0.1,0.5,0.8,0.3,0.7-0.2c-0.2-1.5-0.5-2.9-0.7-4.4
					C288.1,171.5,287.4,171.7,287.4,172.2L287.4,172.2z"/>
			</g>
		</g>
		<g>
			<path class="st6" d="M286,175.2c-0.9,1.6-1,3.7,0.1,5.2c0.7,1,1.8,1.6,3,1.9c2.8,0.9,5.9,0.7,8.5-0.8c2.5-1.5,4.3-4.2,4.5-7.1"/>
		</g>
		<g>
			<path class="st6" d="M275.5,117.2c-4.2-4.3-4.4-11.1-2.6-16.8c1.3-3.9,4.2-8.1,8.3-7.8c3.1,0.2,5.7,2.9,8.8,3.2
				c3,0.3,5.6-1.5,8.2-3.1c9.1-5.7,19.9-8.9,30.6-8s21.2,5.7,28.1,14c6,7.2,9.1,16.7,8.8,26c-0.2,9.3-3.7,18.5-9.4,25.9
				c-5.7,7.4-14.1,13.3-23.5,13.9c-9.4,0.6-19.4-5.2-21.7-14.3"/>
		</g>
		<ellipse class="st0" cx="297.2" cy="156.7" rx="1.3" ry="2"/>
	</g>
</g>
<g id="tab_2">
	<path class="st11" d="M160.8,306.6H59.7c-6.6,0-12-5.4-12-12v-88.5c0-6.6,5.4-12,12-12h101.1c6.6,0,12,5.4,12,12v88.5
		C172.8,301.2,167.4,306.6,160.8,306.6z"/>
	<line class="st12" x1="64.8" y1="280.9" x2="155.8" y2="280.9"/>
	<line class="st12" x1="63.9" y1="219.1" x2="84.6" y2="219.1"/>
	<line class="st12" x1="63.9" y1="231.4" x2="89.3" y2="231.4"/>
	<line class="st12" x1="63.9" y1="246.7" x2="84.6" y2="246.7"/>
	<line class="st12" x1="63.9" y1="262.7" x2="84.6" y2="262.7"/>
	<circle class="st3" cx="150.3" cy="216.9" r="2.3"/>
	<circle class="st3" cx="150.3" cy="230.7" r="2.3"/>
	<circle class="st3" cx="150.3" cy="247.5" r="2.3"/>
	<circle class="st3" cx="150.3" cy="262.7" r="2.3"/>
	<circle class="st4" cx="149" cy="291.1" r="5.3"/>
	<line class="st12" x1="68.2" y1="291.1" x2="103.3" y2="291.1"/>
	<line class="st12" x1="79.1" y1="295.1" x2="123.6" y2="295.1"/>
</g>
<g id="tab_1">
	<path class="st13" d="M585.6,166.2H386.3c-6.6,0-12-5.4-12-12V76.4c0-6.6,5.4-12,12-12h199.3c6.6,0,12,5.4,12,12v77.8
		C597.6,160.8,592.2,166.2,585.6,166.2z"/>
	<circle class="st4" cx="399.4" cy="87.1" r="7.3"/>
	<circle class="st4" cx="400" cy="138.8" r="7.3"/>
	<line class="st14" x1="424.4" y1="84.5" x2="522.4" y2="84.5"/>
	<line class="st12" x1="438.3" y1="91.8" x2="554.4" y2="91.8"/>
	<line class="st12" x1="534.6" y1="84.5" x2="575.1" y2="84.5"/>
	<line class="st12" x1="420.8" y1="99" x2="477" y2="99"/>
	<line class="st12" x1="433.4" y1="104.4" x2="554.4" y2="104.4"/>
	<line class="st12" x1="420.8" y1="129.1" x2="481.5" y2="129.1"/>
	<line class="st12" x1="420.8" y1="136.3" x2="473.4" y2="136.3"/>
	<line class="st12" x1="428.2" y1="146.1" x2="511.2" y2="146.1"/>
	<line class="st12" x1="486" y1="136.3" x2="526.5" y2="136.3"/>
	<line class="st12" x1="493.9" y1="129.1" x2="575.1" y2="129.1"/>
	<line class="st12" x1="529.1" y1="146.1" x2="579.9" y2="146.1"/>
</g>
</svg>
