<?xml version="1.0" encoding="utf-8"?>
<!-- Generator: Adobe Illustrator 23.0.3, SVG Export Plug-In . SVG Version: 6.00 Build 0)  -->
<svg version="1.1" xmlns="http://www.w3.org/2000/svg" xmlns:xlink="http://www.w3.org/1999/xlink" x="0px" y="0px"
	 viewBox="0 0 600 600" style="enable-background:new 0 0 600 600;" xml:space="preserve">
<style type="text/css">
	.st0{fill:#202124;}
	.st1{fill:#FFFFFF;stroke:#202124;stroke-width:0.75;stroke-miterlimit:10;}
	.st2{fill:#709AEE;}
	.st3{fill:#7F7F7F;}
	.st4{fill:#EAEAEA;}
	.st5{fill:#FFFFFF;}
	.st6{fill:none;stroke:#202124;stroke-width:0.75;stroke-miterlimit:10;}
	.st7{fill:#EB506E;}
	.st8{fill:#5492ED;}
	.st9{fill:none;stroke:#202124;stroke-miterlimit:10;}
	.st10{fill:#B1CEFC;}
	.st11{fill:none;}
	.st12{fill:#040844;}
	.st13{fill:#F7CD5B;}
</style>
<g id="background">
	<g id="plant">
		<path class="st0" d="M488.4,478.1c5.5,30.5,11,61.1,16.5,91.6c17.5,0.2,34.9,0.5,52.4,0.7c4.4-30.8,8.7-61.5,13.1-92.3H488.4z"/>
		<ellipse class="st1" cx="529.4" cy="479.4" rx="41" ry="15.9"/>
		<g>
			<g>
				<path class="st2" d="M521.9,376.6c-6.2,8.3-11.3,17.3-15.3,26.9c-3.7,8.7-6.8,18.5-5.3,28c1.4,8.8,7,15,13,21.1
					c8.2,8.4,13.8,17.3,13.5,29.4c0,1.9,3,1.9,3,0c0.2-8.6-2.2-16.8-7.4-23.7c-5.2-6.9-12.9-12.1-16.9-20c-5.1-10-2-21.7,1.9-31.6
					c4.1-10.2,9.5-19.8,16.1-28.6C525.6,376.6,523,375.1,521.9,376.6L521.9,376.6z"/>
			</g>
		</g>
		<g>
			<g>
				<path class="st2" d="M527.2,463.7c-7.1-21.7,22.3-36.8,15.2-59c-0.6-1.8-3.5-1-2.9,0.8c7,21.7-22.5,36.7-15.2,59
					C524.9,466.3,527.8,465.5,527.2,463.7L527.2,463.7z"/>
			</g>
		</g>
		<g>
			<g>
				<path class="st2" d="M508.1,368.2c-4,5.8-7.9,11.9-8.9,19c-1.2,7.7,1.7,14.8,4.7,21.7c0.8,1.8,3.3,0.2,2.6-1.5
					c-2.9-6.8-5.8-13.9-4-21.5c1.4-6,4.8-11.2,8.2-16.2C511.7,368.1,509.1,366.6,508.1,368.2L508.1,368.2z"/>
			</g>
		</g>
		<g>
			<g>
				<path class="st2" d="M534.1,434c-3.1-6.6-4.7-13.7-4.4-21c0.3-6.5,3.4-12.7,2.8-19.2c-0.2-1.9-3.2-1.9-3,0
					c0.4,4.5-1.3,8.5-2.1,12.8c-0.6,3.2-0.9,6.6-0.8,9.9c0.2,6.7,2,13,4.8,19C532.4,437.2,535,435.7,534.1,434L534.1,434z"/>
			</g>
		</g>
		<g>
			<g>
				<path class="st2" d="M530.8,408.8c1.5-6.7,6.7-12.2,9.4-18.4c2.6-6,4.1-12.3,4.8-18.8c0.2-1.9-2.8-1.9-3,0
					c-0.8,7.5-2.8,14.7-6.4,21.4c-2.7,5-6.5,9.4-7.8,15.1C527.5,409.9,530.4,410.7,530.8,408.8L530.8,408.8z"/>
			</g>
		</g>
		<path class="st2" d="M504.6,437.7c-0.9,0.1-9.5,0.6-15.3-6.2c-4.3-5.1-5.4-12.3-2.8-18.7c2.5,0.9,6.5,2.7,10.1,6.4
			C503.6,426.3,504.4,435.1,504.6,437.7z"/>
		<path class="st2" d="M505.7,410.1c-0.9-2.3,4.6-6.7,7.8-8.7c4.5-2.9,9-3.8,11.9-4.1c-0.2,1.3-1.6,9.4-8.3,12.8
			C512.6,412.3,506.5,412.1,505.7,410.1z"/>
		<path class="st2" d="M505,375.8c-0.4-1.2-3.3-10.5,2.2-18.6c2.8-4.1,6.6-6.1,8.5-6.9c1.2,2.6,1.5,4.8,1.6,6.5
			C517.6,368,506,375.2,505,375.8z"/>
		<path class="st2" d="M520.4,384.3c-0.8-1.7-2.5-6-1.4-11.2c1.9-9.2,10.6-13.1,11.5-13.4c-0.1,2.8-0.5,6.7-2,10.9
			C526.3,377.2,522.8,381.7,520.4,384.3z"/>
		<path class="st2" d="M535.5,431c1.6-2.9,4.5-7.4,9.6-11.4c6.1-4.9,12.3-6.7,15.7-7.5c-0.6,2.3-1.8,5.1-3.7,7.8
			C550,429.6,538,430.8,535.5,431z"/>
		<path class="st2" d="M516.4,454.5c-1.1-1.5-5.3-7.6-4.5-16.2c0.8-9,6.5-14.4,7.8-15.6c0.7,2.6,1.3,5.6,1.5,9
			C521.8,441.9,518.7,450,516.4,454.5z"/>
	</g>
	<g id="screen">
		<path class="st3" d="M289.9,465v-62.5c0-5.5-4.4-9.9-9.9-9.9h-13.1c-5.5,0-9.9,4.4-9.9,9.9v62.7c-23.1,3.2-39.8,12.7-39.8,23.8
			c0,13.8,25.6,25,57.1,25c31.5,0,57.1-11.2,57.1-25C331.4,477.6,313.9,467.9,289.9,465z"/>
		<polygon class="st4" points="480.1,456 105.6,370.2 120.9,9.1 511.2,56.6 		"/>
		<polygon class="st3" points="107.3,329.1 105.6,370.2 480.1,456 483.8,408.6 		"/>
		<circle class="st5" cx="272.5" cy="392.8" r="9.3"/>
	</g>
	<g id="eye">
		<path class="st6" d="M174.2,39.4c-1.2,1.1-9.7,8.5-22.1,6.9c-12.7-1.6-19.1-11.5-19.9-12.8c1.3-1.1,9.8-8.3,22.1-6.7
			C166.9,28.4,173.3,38,174.2,39.4z"/>
		<circle class="st7" cx="152.2" cy="36.5" r="7.5"/>
	</g>
	<g id="tab_2">
		<path class="st1" d="M27.2,203.9c-0.5,2.1-3.3,91.7-3.3,91.7l186.3,37.4l9.7-91.4L27.2,203.9z"/>
		<polygon class="st7" points="25.6,231.4 217.1,267.1 219.8,241.7 27.2,203.9 		"/>
		<circle class="st8" cx="37.6" cy="244.2" r="4.9"/>
		<circle class="st8" cx="36.8" cy="283.2" r="4.2"/>
		<line class="st9" x1="47" y1="247.3" x2="190.1" y2="275"/>
		<line class="st9" x1="41" y1="261.2" x2="158.1" y2="285.8"/>
		<line class="st9" x1="53" y1="283.2" x2="190.1" y2="312"/>
	</g>
	<g id="tab_1">
		<polygon class="st1" points="389.2,81.7 380.8,143.7 535.1,175.2 547.5,111.1 		"/>
		<path class="st7" d="M387.4,94.7c52.5,9.7,105,19.3,157.5,29c0.9-4.2,1.7-8.4,2.6-12.6c-52.8-9.8-105.5-19.6-158.3-29.3"/>
		<circle class="st8" cx="397.2" cy="109" r="4.8"/>
		<circle class="st8" cx="392.1" cy="129.5" r="4.6"/>
		<line class="st9" x1="408.5" y1="106.6" x2="516.9" y2="124.9"/>
		<line class="st9" x1="425.4" y1="115.7" x2="535.5" y2="134.2"/>
		<line class="st9" x1="405.5" y1="119.4" x2="487.1" y2="131.7"/>
		<line class="st9" x1="402.1" y1="128.5" x2="531.4" y2="151.9"/>
		<line class="st9" x1="402.1" y1="134.2" x2="516.9" y2="154.6"/>
		<line class="st9" x1="462" y1="154.1" x2="526.5" y2="165.8"/>
	</g>
</g>
<g id="character">
	<g id="legs">
		<path class="st10" d="M428.7,238.1c0.8,2.8,1.8,6.9,3.1,11.7c2.5,9.7,8.7,34,14.9,63.8c7.5,36.1,12.4,68,15.4,90
			c-12.7-2.7-25.4-5.4-38.2-8.1c-11.9-24.8-18.2-39-21.9-47.7c-1-2.4-3.7-8.9-8.1-17.1c-3.5-6.5-6.7-11.7-8.7-14.8
			c-0.7,2.2-1.9,5.7-3.5,9.7c-4.1,10.5-8.2,17.9-9.7,20.7c-3.8,7-9.3,17.9-16.4,34.9c-14.7-3.1-29.3-6.2-44-9.2
			c6-20.6,12.5-41.4,19.4-62.6c2.6-7.8,5.1-15.5,7.7-23.2c5.9-5.4,12.6-10.9,20.1-16.2C384.1,252.2,409.2,243,428.7,238.1z"/>
		<g>
			<path class="st11" d="M338.9,285.8C329,314,321,343,311.2,372.4"/>
		</g>
		<g>
			<path class="st11" d="M428.7,238.1c14.6,54.2,25.7,109.3,33.3,164.9"/>
		</g>
		<g>
			<g>
				<path class="st5" d="M371.9,304.2c14.6,8.8,21.3,25,28,39.9c8,17.7,16,35.5,24,53.2c0.2,0.4,0.8,0.1,0.6-0.4
					c-8.5-18.9-17-37.9-25.6-56.8c-6.3-13.9-13.2-28.4-26.7-36.6C371.9,303.3,371.5,304,371.9,304.2L371.9,304.2z"/>
			</g>
		</g>
		<g>
			<path class="st11" d="M384.8,319.1c-9.8,20.8-19.5,41.6-29.3,62.4"/>
		</g>
	</g>
	<g id="arm_left">
		<path class="st12" d="M207.6,161.2c2.4-0.7,4.1-0.8,13.9-2c12.2-1.5,22-3,28.4-4.1c2.3,0.7,5.8,2.2,8.9,5.3
			c5.1,5.1,6,11.5,6.5,15.1c0.6,4.6,0.2,8.4-0.4,11.1c-4.1,1.7-8.6,3.3-13.2,4.9c-2.7,0.9-11.9,3.9-24.5,6.6
			c-4.3,0.9-15.1,3.1-29.3,4.6c-6,0.6-11.1,0.9-14.9,1.1C189.5,173,199.5,163.7,207.6,161.2z"/>
		<g>
			<g>
				<path class="st0" d="M190.1,203.8c14-0.9,27.9-3,41.5-6.2c13.1-3.1,26.6-6.7,38.5-13.1c0.4-0.2,0-0.9-0.4-0.6
					c-11.8,6.3-25.4,9.9-38.4,13c-13.6,3.2-27.4,5.2-41.3,6.2C189.7,203.1,189.6,203.8,190.1,203.8L190.1,203.8z"/>
			</g>
		</g>
		<g>
			<g>
				<path class="st0" d="M207.7,161.5c18.4-2.6,36.7-5.2,55.1-7.9c0.5-0.1,0.3-0.8-0.2-0.7c-18.4,2.6-36.7,5.2-55.1,7.9
					C207,160.9,207.2,161.6,207.7,161.5L207.7,161.5z"/>
			</g>
		</g>
	</g>
	<g id="torso">
		<path class="st12" d="M245.5,155.1c-0.4,1.7-0.9,4.3-0.1,7.3c0.9,3.3,2.9,5.4,3.9,6.4c5.3,5.7,2.8,5.4,13.3,18.9
			c1.3,1.6,5.3,6.7,11.6,13.8c2.1,2.3,8.8,9.7,23.2,23.4c6.2,5.9,14.4,13.5,24.3,22.2c1.5,4,3.1,8.1,4.7,12.2
			c3.1,7.9,6.2,15.7,9.4,23.3c0.5,1,1.4,2.4,3,3.6c2.8,2.2,6.1,2.4,11.5,2.4c7.1,0,10.7,0,13.5-0.3c11.2-1.2,19.7-4.3,23.9-6
			c4.4-1.8,10-4.1,16.4-8.7c3.7-2.6,10.5-7.6,16.3-16.7c2.4-3.7,5.5-9.6,7.4-17.6c-1.5-4.8-3.7-11.1-6.7-18.3
			c-2.4-5.8-6.7-16.1-14.2-28.4c-3.3-5.4-8.9-14.5-18-24.9c-5.3-6-13.1-14.7-25-22.7c-6.2-4.2-21.5-14.3-43.3-17.5
			c-11.1-1.6-19.2-0.8-21.1-0.6c-10.6,1.2-18.3,4.3-23.8,6.7c-6.2,2.6-14.7,6.3-23.3,14.2C249.4,150.5,247,153.2,245.5,155.1z"/>
		<g>
			<path class="st11" d="M245.4,162.4c18.1,31.7,45.1,57.2,72.8,81"/>
		</g>
		<g>
			<path class="st11" d="M321.8,247.1c4.5,11.9,9.2,23.7,14,35.5c0.4,1.1,0.9,2.2,1.8,2.9c0.7,0.6,1.6,0.9,2.5,1.1
				c5,1.5,10.3,2.3,15.5,2.3c4.7,0,9.3-0.6,13.9-1.4c13.2-2.5,26.1-7.2,36.8-15.3c10.7-8.1,19-19.7,21.7-32.8"/>
		</g>
		<g>
			<path class="st11" d="M245.5,155.1c3.6-6,9.6-10.2,15.6-13.8c9-5.4,18.7-10.1,28.9-12.5c21.1-5.1,43.9-0.8,63.1,9.5
				s34.9,26.2,47.3,44c11.6,16.6,20.5,35.1,26.4,54.4"/>
		</g>
	</g>
	<g id="hand_left">
		<path class="st13" d="M283.9,356.8c-1.3-0.3-3.2-0.8-5.5-1c-3.5-0.4-5.4-0.5-7.6,0.5c-0.7,0.3-3.7,1.8-4.2,4.8
			c-0.3,1.7,0.4,3.1,0.7,3.8c-4.4,1.3-7.2,3.4-8.7,4.7c-2.7,2.4-3.5,4.5-3.7,5c-0.4,1.2-1.3,3.4-0.3,5.5c0.3,0.6,0.9,1.7,4.1,3.3
			c3.4,1.7,5.7,2.9,9,2.8c4,0,7-1.8,9.1-3.1c2.6-1.6,2-1.9,5.6-4.4c3.6-2.5,4.7-2.5,7.9-5c1.7-1.3,3-2.3,4.3-4.1
			c0.8-1,2.4-3.2,3.1-6.5c0.2-0.9,0.4-2.4,0.1-4.2c-0.1-0.4-0.5-2.9-1.7-4.1C294.1,352.7,289,353.3,283.9,356.8z"/>
		<path class="st12" d="M326.8,128.6c-2.6,4.1-5.2,8.6-7.7,13.6c-6.1,12-9.8,23.4-12.1,33.1c-3.2,22.3-6.3,44.9-9.3,67.7
			c-4.9,38.2-9.2,75.7-13,112.6c1.2-0.3,3.2-0.6,5.4-0.1c5.1,1.2,7.6,5.5,8,6.3c2.2-5.5,5-12.7,8.2-21.1c4.2-11.1,10-26.4,16.4-44.6
			c5.6-15.7,12.9-38.4,27.4-83.2c3.1-9.7,5.3-19.6,8.6-29.2c1-2.7,2.6-7.4,3.5-13.9c0.7-5.6,1.4-10.8-0.7-16.9
			c-2.4-7-7-11.1-9.7-13.6c-4.8-4.4-9.6-6.4-11.9-7.4C334.8,129.7,330.1,128.9,326.8,128.6z"/>
		<g>
			<g>
				<path class="st5" d="M327.8,129.1c17.1,1.8,35.1,15,34.8,33.5c-0.1,8.9-3.2,17.7-5.7,26.2c-2.4,8.3-4.9,16.7-7.4,25
					c-9.9,32.6-20.8,65-32.4,97c-6.7,18.4-13.7,36.8-20.9,55c-0.2,0.4,0.5,0.6,0.7,0.2c14-35.3,27-70.9,39-106.9
					c5.9-17.7,11.5-35.5,16.9-53.4c2.8-9.2,5.6-18.4,8-27.6c2-7.3,3.6-15.1,1.9-22.7c-3.4-15.3-20.2-25.5-34.9-27
					C327.4,128.3,327.4,129.1,327.8,129.1L327.8,129.1z"/>
			</g>
		</g>
		<g>
			<path class="st11" d="M307,175.2c-8.7,59.9-16.1,120.1-22.3,180.3"/>
		</g>
		<g>
			<path class="st11" d="M284.5,356c4.6-2,10.5,0.1,12.8,4.5"/>
		</g>
		<g>
			<path class="st11" d="M296.8,365.7c-3.4,8.8-13.8,10.9-19.9,17.3"/>
		</g>
		<g>
			<g>
				<path class="st0" d="M283.7,356.3c-5.2-0.8-15-3.4-16.5,4.1c-0.1,0.5,0.6,0.7,0.7,0.2c1.4-7,10.7-4.4,15.6-3.6
					C283.9,357.1,284.1,356.3,283.7,356.3L283.7,356.3z"/>
			</g>
		</g>
		<g>
			<path class="st11" d="M275.4,361.4c-4.3,2.4-9.3,3.5-13.6,5.9s-8.1,6.9-7.5,11.8"/>
		</g>
		<g>
			<g>
				<path class="st0" d="M258.2,381.4c1.6-5.4,5.4-9.6,10.5-11.9c0.4-0.2,0.1-0.8-0.4-0.6c-5.3,2.4-9.2,6.8-10.8,12.4
					C257.4,381.7,258.1,381.9,258.2,381.4L258.2,381.4z"/>
			</g>
		</g>
		<g>
			<g>
				<path class="st0" d="M262.9,383.7c2.5-5.3,6.7-9.3,12-11.6c0.4-0.2,0.1-0.8-0.4-0.6c-5.5,2.3-9.8,6.5-12.3,11.9
					C262,383.7,262.6,384.1,262.9,383.7L262.9,383.7z"/>
			</g>
		</g>
		<g>
			<g>
				<path class="st0" d="M268.2,386.2c1.5-4.5,4.9-8.1,9.4-9.9c0.4-0.2,0.3-0.9-0.2-0.7c-4.7,1.9-8.3,5.6-9.9,10.4
					C267.3,386.5,268,386.7,268.2,386.2L268.2,386.2z"/>
			</g>
		</g>
	</g>
	<g id="head">
		<path class="st8" d="M259.4,141.2c-0.8-0.6-2.1-1.5-3.5-2.9c-1.4-1.5-3.4-3.5-4.5-6.6c-0.5-1.6-1.7-5.3,0.2-8.9
			c0.1-0.3,2.1-3.7,6-4.6c1.3-0.3,2.6-0.3,8.5,1.7c6.8,2.3,6.6,2.8,12.4,4.8c2.3,0.7,4.1,1.3,6.7,2.6c1.8,1,3.2,1.7,4.6,3.1
			c3.2,3.2,4,7.1,4.2,8.2c0.4,2.1,0.8,4.4-0.2,6.5c-2.7,5.5-13.6,4.8-14.8,4.8C271.3,149.3,265.5,145.3,259.4,141.2z"/>
		<path class="st13" d="M259.5,140.6c-0.2,1.1-0.4,2.7-0.3,4.7c0,2.2,0.1,6.4,2.6,10.7c0.9,1.6,2.9,4.9,7.1,6.8
			c3.7,1.7,7,1.3,8.9,1.1c4.6-0.5,7.7-2.5,8.4-3c0.8-0.6,2.2-1.5,3.5-3.1c2.1-2.6,2.7-5.2,3.6-9.3c0.5-2,0.7-3.8,0.9-5.2
			c-1-1.7-3.8-5.8-9.2-8.4c-5.8-2.8-11-2.2-12-2C265.2,133.8,260.6,139.3,259.5,140.6z"/>
		<g>
			<path class="st11" d="M259.4,141.2c-0.7,5.2-0.1,10.8,2.7,15.3c2.7,4.5,7.8,7.8,13,7.7c1.8-0.1,3.5-0.5,5.2-1
				c1.8-0.5,3.7-1.1,5.3-2c5-2.8,7.8-8.8,7.6-14.5"/>
		</g>
		<g>
			<g>
				<path class="st0" d="M268.1,142.3c-1.7,4-3.2,10.8,1.3,13.6c0.4,0.3,0.8-0.4,0.4-0.6c-4.2-2.6-2.5-9.1-1-12.8
					C269,142.1,268.3,141.9,268.1,142.3L268.1,142.3z"/>
			</g>
		</g>
		<g>
			<path class="st11" d="M259.2,140.8c-1.3-0.6-2.3-1.5-3.3-2.5c-2.8-2.8-5.1-6.4-5.3-10.4s2-8.2,5.8-9.5c3.2-1,6.6,0.2,9.8,1.4
				c5.3,2.1,10.7,4.1,16,6.2c1.7,0.7,3.5,1.3,5.1,2.3c4.9,3.1,7.8,9.2,6.9,15"/>
		</g>
		<g>
			<path class="st11" d="M259.5,140.6c1.5-2.6,3.9-4.5,6.6-5.8c4.8-2.4,10.5-2.8,15.7-1.3c5.1,1.6,9.6,5.1,12.3,9.8"/>
		</g>
		<ellipse class="st0" cx="275.2" cy="143.7" rx="1.2" ry="2.2"/>
	</g>
	<g id="hand_right">
		<path class="st12" d="M241.3,139.3c0.4,0.3,0.8,0.7,1.2,1.1c2.4,2.4,3.7,5.1,4.5,7.3c-0.6,1-1.5,2.7-2.6,4.6
			c-1.4,2.2-6.4,10.3-16.7,20.9c-2.9,3-1.5,1.3-11,10.3c-8.5,8.1-18.9,18.2-27.2,19.8c-2.1,0.4-4.3,0.4-4.3,0.4
			c-1.6,0-5.2-0.1-9.4-1.7c-3.1-1.2-5.8-2.3-7.9-5c-3-3.9-2.8-8.6-2.7-9.9c0.1-1,0.4-4.4,4.8-10.6c3.3-4.6,7.1-8.5,11.6-12
			c5.7-4.5,10.6-6.9,15.8-9.5c1.9-1,7.7-3.7,21-8.4C224.3,144.6,232,142,241.3,139.3z"/>
		<path class="st13" d="M241.3,139.3c0.8-0.2,2.1-0.6,3.7-1c5.3-1.4,6.3-1.2,9.5-2.2c3.4-1.1,3.1-1.6,6.2-2.4
			c2.1-0.6,4.2-1.1,6.8-0.7c3.7,0.5,7.6,2.9,7.4,4.6c-0.1,0.7-0.8,1.1-1.3,1.4c-2,1.2-3.9,0.3-6.1,0.3c-1.6,0-3.8,1.2-8.4,3.7
			c-4.5,2.4-5.5,3.4-8,3.6c-1.9,0.2-3.6-0.2-4.6-0.6c-0.5-1-1.2-2.2-2.2-3.5C243.2,141.1,242.2,140.1,241.3,139.3z"/>
		<g>
			<path class="st11" d="M240.3,139.7c-9.6,2.7-19,5.9-28.4,9.3c-17,6.3-34.6,14.8-43.7,30.6c-2.2,3.7-3.8,8.1-2.9,12.3
				c1.4,6.2,7.8,9.2,9.5,10c5.8,2.8,11.2,2,13.3,1.6"/>
		</g>
		<g>
			<g>
				<path class="st0" d="M241.1,139.7c2.7,2.1,4.6,4.9,5.6,8.2c0.1,0.5,0.9,0.3,0.7-0.2c-1-3.5-3-6.5-5.9-8.7
					C241.1,138.7,240.7,139.4,241.1,139.7L241.1,139.7z"/>
			</g>
		</g>
		<g>
			<path class="st11" d="M247,148.1c-7.6,13.2-17.7,25-29.6,34.5"/>
		</g>
		<g>
			<g>
				<path class="st0" d="M247.7,146.4c3.7,1.1,6.8-0.1,10-2.2c2.4-1.6,4.7-3.5,7.5-4.3c2.8-0.7,6-0.5,8.8-0.7c0.5,0,0.5-0.8,0-0.8
					c-3.5,0.2-7.3-0.1-10.6,1.2c-5.3,2.2-9,7.9-15.6,5.9C247.4,145.5,247.2,146.2,247.7,146.4L247.7,146.4z"/>
			</g>
		</g>
		<g>
			<g>
				<path class="st0" d="M243.1,139.1c9.7-2,21.6-6.5,31-1.7c0.4,0.2,0.8-0.4,0.4-0.6c-9.7-4.9-21.7-0.4-31.6,1.7
					C242.4,138.4,242.6,139.2,243.1,139.1L243.1,139.1z"/>
			</g>
		</g>
		<g>
			<g>
				<path class="st0" d="M254.5,136.4c2.4-0.4,4.3-2,6.7-2.6c3.2-0.9,6.4-0.8,9.6,0.1c0.5,0.1,0.7-0.6,0.2-0.7
					c-2.6-0.7-5.2-1-7.8-0.5c-3.2,0.5-5.7,2.5-8.8,3.1C253.8,135.8,254,136.5,254.5,136.4L254.5,136.4z"/>
			</g>
		</g>
	</g>
</g>
</svg>
